<svg data-v-fde0c5aa="" xmlns="http://www.w3.org/2000/svg" viewBox="0 0 300 300" class="font"><!----><defs data-v-fde0c5aa=""><!----></defs><rect data-v-fde0c5aa="" fill="transparent" x="0" y="0" width="300px" height="300px" class="logo-background-square"></rect><defs data-v-fde0c5aa=""><linearGradient data-v-fde0c5aa="" gradientTransform="rotate(25)" id="3a88617e-d6e1-46a8-af24-29b958aaa226" x1="0%" y1="0%" x2="100%" y2="0%"><stop data-v-fde0c5aa="" offset="0%" stop-color="#F17A2A" stop-opacity="1"></stop><stop data-v-fde0c5aa="" offset="100%" stop-color="#B8B8B8" stop-opacity="1"></stop></linearGradient></defs><g data-v-fde0c5aa="" id="90a7f2a1-fd88-4eb9-b38f-9981cce00d82" fill="url(#3a88617e-d6e1-46a8-af24-29b958aaa226)" transform="matrix(3.806886911392212,0,0,3.806886911392212,38.934071651040426,111.85499198246889)"><path d="M9.80 6.71C9.55 6.09 9.21 5.56 8.76 5.11C8.32 4.66 7.77 4.33 7.14 4.07C6.51 3.82 5.82 3.70 5.05 3.70L1.34 3.70L0.28 3.70L0.28 4.52C0.28 4.76 0.39 4.90 0.63 4.96C0.64 4.96 0.67 4.97 0.71 4.97C0.76 4.97 0.83 5.00 0.92 5.01C1.02 5.03 1.18 5.05 1.34 5.08L1.34 12.43C1.18 12.46 1.02 12.49 0.92 12.50C0.83 12.52 0.76 12.54 0.71 12.54C0.67 12.54 0.64 12.56 0.63 12.56C0.39 12.61 0.28 12.75 0.28 12.99L0.28 13.82L1.34 13.82L5.05 13.82C5.82 13.82 6.51 13.69 7.14 13.44C7.77 13.19 8.32 12.85 8.76 12.40C9.21 11.96 9.55 11.41 9.80 10.79C10.05 10.18 10.18 9.49 10.18 8.75C10.18 8.01 10.05 7.32 9.80 6.71ZM8.02 10.25C7.87 10.70 7.67 11.06 7.39 11.37C7.11 11.68 6.78 11.90 6.38 12.07C5.99 12.24 5.54 12.32 5.05 12.32L3.23 12.32L3.23 5.19L5.05 5.19C5.54 5.19 5.99 5.28 6.38 5.45C6.78 5.61 7.11 5.84 7.39 6.15C7.67 6.45 7.87 6.83 8.02 7.27C8.18 7.71 8.25 8.19 8.25 8.75C8.25 9.31 8.18 9.80 8.02 10.25ZM14.17 6.52C13.64 6.52 13.13 6.62 12.70 6.79C12.26 6.96 11.89 7.20 11.58 7.52C11.27 7.84 11.02 8.22 10.85 8.68C10.68 9.14 10.60 9.65 10.60 10.21C10.60 10.78 10.68 11.28 10.85 11.75C11.02 12.21 11.27 12.60 11.58 12.92C11.89 13.24 12.26 13.50 12.70 13.66C13.13 13.83 13.64 13.92 14.17 13.92C14.70 13.92 15.19 13.83 15.62 13.66C16.06 13.50 16.44 13.24 16.74 12.92C17.05 12.60 17.28 12.21 17.44 11.75C17.61 11.28 17.70 10.78 17.70 10.21C17.70 9.65 17.61 9.14 17.44 8.68C17.28 8.22 17.05 7.84 16.74 7.52C16.44 7.20 16.06 6.96 15.62 6.79C15.19 6.62 14.70 6.52 14.17 6.52ZM14.17 12.59C13.57 12.59 13.12 12.39 12.82 11.98C12.53 11.58 12.38 11.00 12.38 10.23C12.38 9.46 12.53 8.86 12.82 8.46C13.12 8.05 13.57 7.84 14.17 7.84C14.77 7.84 15.20 8.05 15.48 8.46C15.76 8.86 15.92 9.45 15.92 10.22C15.92 10.99 15.76 11.58 15.48 11.98C15.20 12.39 14.77 12.59 14.17 12.59ZM30.04 12.56C30.03 12.56 30.00 12.54 29.96 12.54C29.92 12.54 29.85 12.52 29.75 12.50C29.65 12.49 29.51 12.46 29.34 12.43L29.34 9.25C29.34 8.82 29.29 8.43 29.18 8.09C29.06 7.76 28.91 7.48 28.70 7.24C28.49 7.00 28.22 6.83 27.92 6.71C27.61 6.58 27.26 6.52 26.87 6.52C26.64 6.52 26.40 6.55 26.18 6.61C25.96 6.66 25.73 6.73 25.54 6.85C25.34 6.96 25.16 7.08 24.99 7.25C24.82 7.42 24.68 7.63 24.57 7.87C24.43 7.46 24.21 7.14 23.91 6.89C23.62 6.64 23.24 6.52 22.79 6.52C22.58 6.52 22.39 6.54 22.20 6.59C22.02 6.65 21.85 6.72 21.70 6.80C21.55 6.89 21.39 6.99 21.25 7.10C21.11 7.21 20.99 7.35 20.86 7.49L20.75 6.96C20.68 6.75 20.54 6.64 20.31 6.64L19.25 6.64L18.19 6.64L18.19 7.46C18.19 7.70 18.31 7.84 18.55 7.90C18.56 7.90 18.59 7.91 18.63 7.91C18.68 7.91 18.75 7.94 18.84 7.95C18.94 7.97 19.08 7.99 19.25 8.02L19.25 12.43C19.08 12.46 18.94 12.49 18.84 12.50C18.75 12.52 18.68 12.54 18.63 12.54C18.59 12.54 18.56 12.56 18.55 12.56C18.31 12.61 18.20 12.75 18.20 12.99L18.20 13.82L19.25 13.82L20.99 13.82L22.04 13.82L22.04 12.99C22.04 12.75 21.92 12.61 21.69 12.56C21.67 12.56 21.64 12.56 21.60 12.54C21.56 12.53 21.49 12.52 21.39 12.50C21.29 12.49 21.15 12.46 20.99 12.43L20.99 8.57C21.17 8.36 21.36 8.18 21.59 8.05C21.81 7.92 22.04 7.87 22.29 7.87C22.67 7.87 22.95 7.98 23.14 8.20C23.34 8.43 23.44 8.78 23.44 9.25L23.44 13.82L25.17 13.82L26.22 13.82L26.22 12.99C26.22 12.75 26.11 12.61 25.87 12.56C25.86 12.56 25.83 12.56 25.79 12.54C25.75 12.53 25.68 12.52 25.58 12.50C25.48 12.49 25.35 12.46 25.17 12.43L25.17 9.25C25.17 9.03 25.20 8.82 25.27 8.65C25.34 8.48 25.42 8.33 25.54 8.22C25.65 8.11 25.77 8.02 25.93 7.97C26.08 7.91 26.25 7.87 26.43 7.87C26.82 7.87 27.12 7.98 27.31 8.22C27.51 8.44 27.61 8.79 27.61 9.25L27.61 13.82L29.34 13.82L30.39 13.82L30.39 12.99C30.39 12.75 30.28 12.61 30.04 12.56ZM37.35 12.54C37.34 12.54 37.28 12.53 37.20 12.52C37.11 12.50 36.97 12.47 36.82 12.45L36.82 9.27C36.82 8.86 36.76 8.48 36.65 8.15C36.54 7.81 36.34 7.52 36.12 7.27C35.90 7.03 35.62 6.83 35.29 6.69C34.96 6.55 34.58 6.48 34.16 6.48C33.00 6.48 32.00 6.87 31.18 7.63L31.50 8.18C31.56 8.26 31.61 8.34 31.70 8.40C31.78 8.46 31.89 8.48 32.00 8.48C32.14 8.48 32.27 8.46 32.38 8.39C32.49 8.32 32.62 8.26 32.76 8.18C32.90 8.09 33.07 8.02 33.25 7.95C33.43 7.88 33.67 7.85 33.95 7.85C34.34 7.85 34.64 7.97 34.83 8.20C35.03 8.44 35.14 8.79 35.14 9.28L35.14 9.70C34.33 9.70 33.63 9.77 33.08 9.91C32.54 10.05 32.10 10.23 31.77 10.44C31.43 10.65 31.19 10.89 31.05 11.16C30.91 11.42 30.84 11.70 30.84 11.97C30.84 12.29 30.90 12.57 31.00 12.81C31.09 13.05 31.25 13.26 31.43 13.43C31.61 13.59 31.84 13.71 32.09 13.79C32.34 13.87 32.62 13.92 32.93 13.92C33.18 13.92 33.42 13.89 33.63 13.85C33.84 13.80 34.03 13.75 34.22 13.66C34.40 13.58 34.59 13.48 34.76 13.36C34.94 13.23 35.11 13.09 35.29 12.92L35.45 13.43C35.49 13.58 35.56 13.69 35.66 13.73C35.76 13.79 35.88 13.80 36.05 13.80L36.64 13.80L36.82 13.80L37.70 13.80L37.70 12.98C37.70 12.74 37.59 12.60 37.35 12.54ZM35.14 11.96C35.01 12.08 34.89 12.19 34.76 12.29C34.64 12.39 34.51 12.46 34.38 12.53C34.26 12.60 34.10 12.66 33.95 12.68C33.80 12.71 33.64 12.73 33.46 12.73C33.17 12.73 32.94 12.66 32.76 12.53C32.58 12.40 32.49 12.18 32.49 11.87C32.49 11.72 32.54 11.56 32.62 11.44C32.70 11.31 32.84 11.20 33.05 11.10C33.26 11.00 33.54 10.92 33.88 10.85C34.22 10.78 34.64 10.75 35.14 10.75ZM41.30 6.51C40.89 6.51 40.50 6.57 40.15 6.68C39.80 6.79 39.51 6.94 39.26 7.14C39.00 7.34 38.79 7.59 38.65 7.87C38.51 8.15 38.44 8.48 38.44 8.83C38.44 9.27 38.54 9.66 38.75 9.98C38.96 10.30 39.26 10.57 39.62 10.77C39.47 10.85 39.31 10.93 39.20 11.03C39.09 11.13 38.99 11.24 38.91 11.35C38.82 11.47 38.78 11.58 38.74 11.69C38.70 11.80 38.68 11.91 38.68 12.03C38.68 12.29 38.74 12.50 38.85 12.67C38.96 12.84 39.09 12.96 39.27 13.06C38.91 13.20 38.63 13.37 38.42 13.59C38.21 13.82 38.11 14.11 38.11 14.45C38.11 14.70 38.18 14.94 38.30 15.16C38.43 15.39 38.63 15.60 38.89 15.76C39.16 15.93 39.48 16.07 39.89 16.18C40.29 16.30 40.77 16.34 41.31 16.34C41.86 16.34 42.35 16.27 42.78 16.13C43.22 15.99 43.58 15.81 43.88 15.57C44.17 15.33 44.39 15.06 44.55 14.77C44.70 14.48 44.79 14.17 44.79 13.85C44.79 13.51 44.73 13.23 44.59 13.01C44.45 12.78 44.28 12.63 44.06 12.50C43.83 12.38 43.61 12.28 43.33 12.22C43.05 12.17 42.77 12.12 42.48 12.10C42.18 12.07 41.92 12.07 41.64 12.05C41.36 12.05 41.12 12.03 40.89 12.00C40.67 11.97 40.50 11.93 40.36 11.86C40.22 11.79 40.17 11.68 40.17 11.54C40.17 11.37 40.28 11.23 40.50 11.09C40.75 11.14 41.03 11.16 41.30 11.16C41.71 11.16 42.07 11.10 42.41 10.99C42.74 10.88 43.05 10.72 43.30 10.53C43.55 10.33 43.75 10.08 43.89 9.80C44.03 9.52 44.10 9.18 44.10 8.83C44.10 8.68 44.09 8.55 44.06 8.41C44.03 8.27 44.00 8.15 43.96 8.02L44.60 7.91C44.74 7.88 44.83 7.84 44.88 7.78C44.94 7.73 44.97 7.64 44.97 7.53L44.97 6.89L42.91 6.89C42.69 6.76 42.43 6.66 42.17 6.61C41.90 6.55 41.61 6.51 41.30 6.51ZM43.19 14.14C43.19 14.28 43.16 14.42 43.09 14.53C43.02 14.64 42.91 14.76 42.76 14.84C42.60 14.92 42.42 14.98 42.18 15.04C41.94 15.09 41.66 15.12 41.34 15.12C41.02 15.12 40.77 15.09 40.54 15.05C40.32 15.01 40.14 14.95 40.00 14.87C39.86 14.78 39.76 14.69 39.70 14.57C39.65 14.46 39.61 14.35 39.61 14.22C39.61 14.03 39.68 13.86 39.79 13.72C39.90 13.58 40.07 13.45 40.26 13.34C40.47 13.37 40.70 13.38 40.92 13.40C41.15 13.41 41.37 13.41 41.59 13.43C41.82 13.44 42.01 13.45 42.21 13.48C42.41 13.51 42.59 13.54 42.73 13.59C42.87 13.65 42.98 13.72 43.06 13.80C43.15 13.89 43.19 14 43.19 14.14ZM41.30 10.05C41.09 10.05 40.91 10.02 40.74 9.97C40.57 9.91 40.45 9.83 40.33 9.72C40.22 9.60 40.15 9.49 40.10 9.35C40.04 9.21 40.03 9.04 40.03 8.88C40.03 8.53 40.12 8.25 40.33 8.04C40.54 7.83 40.88 7.73 41.30 7.73C41.72 7.73 42.04 7.83 42.25 8.04C42.46 8.25 42.57 8.53 42.57 8.88C42.57 9.04 42.55 9.21 42.49 9.35C42.43 9.49 42.36 9.63 42.25 9.73C42.15 9.83 42.01 9.91 41.86 9.97C41.71 10.02 41.51 10.05 41.30 10.05ZM48.85 6.52C48.31 6.52 47.81 6.62 47.39 6.80C46.97 6.99 46.61 7.24 46.31 7.56C46.02 7.88 45.78 8.26 45.63 8.69C45.47 9.13 45.39 9.58 45.39 10.07C45.39 10.70 45.47 11.26 45.65 11.73C45.84 12.21 46.09 12.61 46.41 12.94C46.73 13.26 47.10 13.51 47.53 13.68C47.96 13.85 48.41 13.92 48.92 13.92C49.17 13.92 49.43 13.90 49.70 13.86C49.97 13.82 50.23 13.76 50.50 13.68C50.75 13.59 51.00 13.47 51.24 13.31C51.48 13.16 51.69 12.96 51.88 12.74L51.38 12.11C51.34 12.05 51.31 12.03 51.25 12.00C51.20 11.97 51.13 11.96 51.06 11.96C50.95 11.96 50.85 11.98 50.74 12.05C50.62 12.12 50.48 12.18 50.33 12.26C50.18 12.35 50.01 12.42 49.80 12.49C49.60 12.56 49.36 12.59 49.08 12.59C48.51 12.59 48.06 12.42 47.71 12.07C47.36 11.72 47.17 11.19 47.11 10.44L51.55 10.44C51.63 10.44 51.69 10.44 51.74 10.42C51.80 10.39 51.84 10.36 51.87 10.30C51.90 10.26 51.91 10.19 51.93 10.11C51.94 10.02 51.95 9.90 51.95 9.77C51.95 9.25 51.87 8.81 51.72 8.40C51.56 7.99 51.35 7.66 51.07 7.38C50.79 7.10 50.47 6.87 50.09 6.73C49.71 6.59 49.29 6.52 48.85 6.52ZM48.87 7.76C49.13 7.76 49.35 7.81 49.55 7.90C49.74 7.98 49.90 8.09 50.02 8.25C50.15 8.40 50.25 8.57 50.30 8.76C50.36 8.96 50.40 9.17 50.40 9.39L47.15 9.39C47.24 8.88 47.42 8.47 47.70 8.19C47.98 7.91 48.37 7.76 48.87 7.76ZM57.19 6.51C56.76 6.51 56.38 6.64 56.03 6.89C55.68 7.14 55.38 7.49 55.13 7.94L55.02 7.07C54.99 6.92 54.95 6.80 54.88 6.73C54.81 6.66 54.70 6.64 54.52 6.64L53.49 6.64L53.49 6.64L52.44 6.64L52.44 7.46C52.44 7.70 52.56 7.84 52.79 7.90C52.91 7.91 52.89 7.91 53.49 8.02L53.49 12.43C52.89 12.54 52.91 12.54 52.79 12.56C52.56 12.61 52.44 12.75 52.44 12.99L52.44 13.82L53.49 13.82L55.23 13.82L55.23 13.82L56.28 13.82L56.28 12.99C56.28 12.75 56.17 12.61 55.93 12.56C55.82 12.54 55.83 12.54 55.23 12.43L55.23 9.35C55.41 8.97 55.62 8.67 55.87 8.47C56.13 8.27 56.43 8.18 56.80 8.18C56.99 8.18 57.16 8.20 57.29 8.23C57.41 8.26 57.50 8.27 57.57 8.27C57.65 8.27 57.72 8.25 57.76 8.22C57.81 8.19 57.83 8.13 57.85 8.05L58.07 6.75C57.83 6.58 57.54 6.51 57.19 6.51Z"></path></g><!----><!----></svg>